<?xml version="1.0" encoding="UTF-8" standalone="no"?>
<svg
   xmlns:dc="http://purl.org/dc/elements/1.1/"
   xmlns:cc="http://creativecommons.org/ns#"
   xmlns:rdf="http://www.w3.org/1999/02/22-rdf-syntax-ns#"
   xmlns:svg="http://www.w3.org/2000/svg"
   xmlns="http://www.w3.org/2000/svg"
   xmlns:sodipodi="http://sodipodi.sourceforge.net/DTD/sodipodi-0.dtd"
   xmlns:inkscape="http://www.inkscape.org/namespaces/inkscape"
   version="1.1"
   id="Ebene_1"
   x="0"
   y="0"
   width="250"
   height="59.4"
   viewBox="550.8 98.1 250 59.4"
   enable-background="new 550.8 98.1 250 59.4"
   xml:space="preserve"
   inkscape:version="0.91 r13725"
   sodipodi:docname="wunderkraut.svg">
   <metadata
     id="metadata3436"><rdf:RDF><cc:Work
         rdf:about=""><dc:format>image/svg+xml</dc:format><dc:type
           rdf:resource="http://purl.org/dc/dcmitype/StillImage" /><dc:title></dc:title></cc:Work></rdf:RDF></metadata><defs
     id="defs3434">
      <style><![CDATA[
        .text,
        .text:target + .text {display: none;}
        .text:target,
        .text:first-child {display: inline;}
      ]]></style>
    </defs>
     <sodipodi:namedview
     pagecolor="#ffffff"
     bordercolor="#666666"
     borderopacity="1"
     objecttolerance="10"
     gridtolerance="10"
     guidetolerance="10"
     inkscape:pageopacity="0"
     inkscape:pageshadow="2"
     inkscape:window-width="1669"
     inkscape:window-height="851"
     id="namedview3432"
     showgrid="false"
     inkscape:zoom="5.768"
     inkscape:cx="103.27498"
     inkscape:cy="29.700001"
     inkscape:window-x="785"
     inkscape:window-y="81"
     inkscape:window-maximized="0"
     inkscape:current-layer="Ebene_1" />
     <path
     fill="#95C11F"
     d="M771.8 106.2c0 0.4 0 0.8 0 1.2 0 3.3 1.2 6.5 3.6 8.9 2 2 4.6 3.2 7.3 3.5 -2-2.7-3.2-6-3.2-9.4 0-0.8 0.1-1.5 0.2-2.3 -2-1.3-4.4-1.9-6.7-1.9C772.6 106.2 772.2 106.2 771.8 106.2zM781.8 108c-0.1 0.8-0.2 1.6-0.2 2.4 0 3.4 1.2 6.5 3.4 9.1 0-0.3 0-0.6 0-1 0-3.6 1.3-7.1 4-9.8 1-1 2.2-1.9 3.4-2.5 -0.2-3-1.5-5.9-3.4-8.2C785.2 100.2 782.5 103.7 781.8 108L781.8 108zM800.7 106.1c-0.4 0-0.8 0-1.2 0 -3.3 0-6.5 1.2-8.9 3.6 -2.4 2.4-3.6 5.6-3.6 8.9 0 0.4 0 0.8 0.1 1.2 0.4 0 0.8 0.1 1.2 0.1 3.3 0 6.5-1.2 8.9-3.6 2.4-2.4 3.6-5.6 3.6-8.9C800.7 106.9 800.7 106.5 800.7 106.1L800.7 106.1z"
     id="path3415" />
     <linearGradient
     id="SVGID_1_"
     gradientUnits="userSpaceOnUse"
     x1="775.3"
     y1="238.2"
     x2="796.4"
     y2="217.1"
     gradientTransform="matrix(1 0 0 -1 0 364)"><stop
       offset="0"
       stop-color="#F7A941"
       id="stop3418" /><stop
       offset="0.15"
       stop-color="#F59E39"
       id="stop3420" /><stop
       offset="0.44"
       stop-color="#F28C2E"
       id="stop3422" /><stop
       offset="0.72"
       stop-color="#F08128"
       id="stop3424" /><stop
       offset="1"
       stop-color="#F07E26"
       id="stop3426" /></linearGradient><path
     fill="url(#SVGID_1_)"
     d="M795.8 125.3c-2.6-2.4-6.1-3.8-10-3.8 -8.2 0-14.9 6.7-14.9 14.9 0 3.4 1.1 6.5 3 9 0.4 0.5 0.8 1 1.2 1.5l10.6 10.6 10.6-10.7c2.6-2.7 4.3-6.4 4.3-10.4C800.8 132 798.8 128 795.8 125.3L795.8 125.3z"
     id="path3428" />
     <g>
       <path class="text"
       fill="#4C565C"
       d="M648.6 129.4c-2.3 0-4.4 0.8-5.9 2.3 -1.5 1.5-2.2 3.5-2.2 5.8v5.1c0 2.4 0.8 4.4 2.2 5.9 1.5 1.5 3.5 2.3 5.9 2.3 2.1 0 4.2-0.4 6.1-1.4 0.7-0.4 1-1 1-1.8 0-1-1-1.9-2-1.9 -0.3 0-0.6 0.1-0.8 0.2 -1.4 0.6-2.8 1-4.4 1 -1.4 0-2.4-0.5-3.1-1.4 -0.5-0.7-0.8-1.8-0.8-3.5v0h9.4c1.5 0 2.6-1.2 2.6-2.6v-1.9c0-2.3-0.8-4.4-2.2-5.8C653 130.1 651 129.4 648.6 129.4zM644.7 138.1c0-3.4 1.4-4.9 3.9-4.9 2.6 0 4 1.6 4 4.9H644.7zM669.4 129.7c-1-0.2-2-0.3-3-0.3 -3.4 0-6 2.6-6 6h0v13.1c0 1.2 0.9 2.1 2.1 2.1 1.1 0 2.1-0.9 2.1-2.1v-13.5c0-1 0.9-1.9 1.9-1.9 0.6 0 1.4 0.2 2 0.3 0.3 0.1 0.4 0.1 0.7 0.1 1.2 0 2-0.8 2-1.9C671 130.7 670.3 129.9 669.4 129.7zM575.3 129.4c-0.9 0-1.8 0.6-2 1.5l-3.6 12.3 -3.4-12.1c-0.2-0.7-1.2-1.7-2.2-1.7 -1 0-2 0.7-2.3 1.7l-3.4 12 -3.6-12.3c-0.3-0.9-1.1-1.5-2-1.5 -1.2 0-2.1 1-2.1 2.1 0 0.2 0 0.4 0.1 0.6l5.4 16.9c0.3 1 1.2 1.7 2.3 1.7 1 0 2-0.7 2.3-1.7l3.4-11.5 3.3 11.6c0.3 1 1.2 1.7 2.3 1.7 1 0 1.9-0.7 2.2-1.7l5.4-16.9c0.1-0.2 0.1-0.4 0.1-0.6C577.4 130.2 576.4 129.4 575.3 129.4zM594.5 129.4c-1.2 0-2.1 0.9-2.1 2.1h0v14.8c-1.3 0.3-2.6 0.5-4 0.5 -2.5 0-3.9-1.4-3.9-3.9v-11.4c0-1.2-0.9-2.1-2.1-2.1 -1.2 0-2.1 0.9-2.1 2.1v11.1c0 2.4 0.7 4.5 2.1 5.9 1.5 1.5 3.6 2.2 5.9 2.2 2.2 0 4.4-0.4 6.3-1 1-0.4 1.8-1.3 1.8-2.5v-15.7C596.6 130.3 595.7 129.4 594.5 129.4zM634.6 121.5c-1.2 0-2.1 0.9-2.1 2.1 0 0 0 4.2 0 6.8 -1.1-0.6-2.6-1-4-1 -2.3 0-4.4 0.7-5.9 2.2 -1.5 1.5-2.2 3.5-2.2 5.9h0v5.1c0 2.4 0.8 4.4 2.2 5.9 1.5 1.5 3.5 2.3 5.9 2.3 2.2 0 4.3-0.4 6.3-1 1-0.4 1.8-1.3 1.8-2.5v-23.5C636.7 122.5 635.7 121.5 634.6 121.5zM632.5 146.3c-1.3 0.4-2.6 0.5-4 0.5 -2.5 0-3.9-1.4-3.9-3.9v-5.8c0-2.5 1.5-3.9 3.9-3.9 1.5 0 2.9 0.5 4 1.5h0V146.3zM608.8 129.4c-2.2 0-4.3 0.4-6.3 1 -1.1 0.4-1.8 1.3-1.8 2.5v15.7c0 1.2 0.9 2.1 2.1 2.1 1.1 0 2.1-0.9 2.1-2.1v-14.8c1.3-0.3 2.6-0.5 3.9-0.5 2.5 0 4 1.5 4 3.9h0v11.4c0 1.2 0.9 2.1 2.1 2.1 1.2 0 2.1-0.9 2.1-2.1v-11.1c0-2.3-0.8-4.4-2.2-5.8C613.2 130.1 611.2 129.4 608.8 129.4zM753.2 146.5c-0.8 0-1 0.3-2.1 0.3 -1 0-1.9-0.9-1.9-2.5v-10.5h3.9c1.2 0 2.1-0.8 2.1-2 0-1.1-0.9-2-2.1-2h-3.9v-6.1c0-1.2-0.9-2.1-2.1-2.1 -1.2 0-2.1 0.9-2.1 2.1h0v20.7c0 3.7 2.7 6.3 6 6.3 0.8 0 1.6-0.1 2.4-0.2 1-0.2 1.8-1 1.8-2C755.2 147.2 754.2 146.5 753.2 146.5zM738.8 129.4c-1.2 0-2.1 0.9-2.1 2.1h0v14.8c-1.2 0.3-2.6 0.5-4 0.5 -2.5 0-3.9-1.4-3.9-3.9v-11.4c0-1.2-0.9-2.1-2.1-2.1 -1.2 0-2.1 0.9-2.1 2.1v11.1c0 2.4 0.7 4.5 2.1 5.9 1.5 1.5 3.6 2.2 5.9 2.2 2.2 0 4.4-0.4 6.3-1 1-0.4 1.8-1.3 1.8-2.5v-15.7C740.9 130.3 740 129.4 738.8 129.4zM681.3 139.1l6.9-6.1c0.4-0.4 0.7-0.9 0.7-1.5 0-1.2-0.9-2.1-2-2.1 -0.5 0-1.1 0.2-1.5 0.6l-7.2 6.7v-13c0-1.2-0.9-2.1-2.1-2.1 -1.2 0-2.1 0.9-2.1 2.1v24.9c0 1.2 0.9 2.1 2.1 2.1 1.1 0 2.1-0.9 2.1-2.1v-7l7.3 8.3c0.4 0.5 1 0.7 1.6 0.7 1.2 0 2-1 2-2.1 0-0.5-0.1-1-0.5-1.4L681.3 139.1zM701.2 129.7c-1-0.2-2-0.3-3-0.3 -3.4 0-6 2.6-6 6h0v13.1c0 1.2 0.9 2.1 2.1 2.1 1.1 0 2.1-0.9 2.1-2.1v-13.5c0-1 0.8-1.9 1.9-1.9 0.6 0 1.4 0.2 2 0.3 0.3 0.1 0.4 0.1 0.7 0.1 1.2 0 2-0.8 2-1.9C702.8 130.7 702.2 129.9 701.2 129.7zM713.8 129.3c-2.9 0-4.8 0.4-7 1.6 -0.7 0.4-1 1.1-1 1.9 0 1 0.9 1.8 2 1.8 0.4 0 0.8-0.2 1.1-0.4 1.4-0.8 2.5-1.1 4.4-1.1 2.1 0 3.4 1.3 3.4 3v1.4h-4.2c-2.5 0-4.4 0.6-5.8 1.8 -1.4 1.1-2.1 2.7-2.1 4.6 0 2 0.7 3.6 2.1 4.8 1.4 1.2 3.3 1.8 5.8 1.8 2.3 0 4.6-0.4 6.5-1 1.1-0.4 1.8-1.3 1.8-2.5h0v-10.9C720.8 132.6 718.3 129.3 713.8 129.3zM716.6 146.3c-1.3 0.3-2.8 0.5-4.2 0.5 -3.5 0-3.7-2-3.7-2.7 0-0.7 0.2-2.6 3.7-2.6h4.2V146.3zM760.8 121.7c-0.2 0-0.3 0.1-0.4 0.3l-1.1 2.2 -1.1-2.2c-0.1-0.1-0.2-0.3-0.4-0.3 -0.3 0-0.5 0.2-0.5 0.5v4c0 0.2 0.2 0.4 0.4 0.4 0.2 0 0.4-0.2 0.4-0.4v-2.5l0.7 1.5c0.1 0.1 0.2 0.3 0.4 0.3 0.2 0 0.3-0.1 0.4-0.3l0.7-1.5v2.5c0 0.2 0.2 0.4 0.4 0.4 0.2 0 0.4-0.2 0.4-0.4v-4C761.3 121.9 761.1 121.7 760.8 121.7zM756.3 121.8h-2.5c-0.2 0-0.4 0.2-0.4 0.4 0 0.2 0.2 0.4 0.4 0.4h0.8v3.6c0 0.2 0.2 0.4 0.4 0.4 0.2 0 0.4-0.2 0.4-0.4v-3.6h0.8c0.2 0 0.4-0.2 0.4-0.4C756.7 121.9 756.5 121.8 756.3 121.8z"
       id="text1"
       style="fill-rule:nonzero;fill:#000000;fill-opacity:1" />
       <path class="text"
       fill="#ebebeb"
       d="M648.6 129.4c-2.3 0-4.4 0.8-5.9 2.3 -1.5 1.5-2.2 3.5-2.2 5.8v5.1c0 2.4 0.8 4.4 2.2 5.9 1.5 1.5 3.5 2.3 5.9 2.3 2.1 0 4.2-0.4 6.1-1.4 0.7-0.4 1-1 1-1.8 0-1-1-1.9-2-1.9 -0.3 0-0.6 0.1-0.8 0.2 -1.4 0.6-2.8 1-4.4 1 -1.4 0-2.4-0.5-3.1-1.4 -0.5-0.7-0.8-1.8-0.8-3.5v0h9.4c1.5 0 2.6-1.2 2.6-2.6v-1.9c0-2.3-0.8-4.4-2.2-5.8C653 130.1 651 129.4 648.6 129.4zM644.7 138.1c0-3.4 1.4-4.9 3.9-4.9 2.6 0 4 1.6 4 4.9H644.7zM669.4 129.7c-1-0.2-2-0.3-3-0.3 -3.4 0-6 2.6-6 6h0v13.1c0 1.2 0.9 2.1 2.1 2.1 1.1 0 2.1-0.9 2.1-2.1v-13.5c0-1 0.9-1.9 1.9-1.9 0.6 0 1.4 0.2 2 0.3 0.3 0.1 0.4 0.1 0.7 0.1 1.2 0 2-0.8 2-1.9C671 130.7 670.3 129.9 669.4 129.7zM575.3 129.4c-0.9 0-1.8 0.6-2 1.5l-3.6 12.3 -3.4-12.1c-0.2-0.7-1.2-1.7-2.2-1.7 -1 0-2 0.7-2.3 1.7l-3.4 12 -3.6-12.3c-0.3-0.9-1.1-1.5-2-1.5 -1.2 0-2.1 1-2.1 2.1 0 0.2 0 0.4 0.1 0.6l5.4 16.9c0.3 1 1.2 1.7 2.3 1.7 1 0 2-0.7 2.3-1.7l3.4-11.5 3.3 11.6c0.3 1 1.2 1.7 2.3 1.7 1 0 1.9-0.7 2.2-1.7l5.4-16.9c0.1-0.2 0.1-0.4 0.1-0.6C577.4 130.2 576.4 129.4 575.3 129.4zM594.5 129.4c-1.2 0-2.1 0.9-2.1 2.1h0v14.8c-1.3 0.3-2.6 0.5-4 0.5 -2.5 0-3.9-1.4-3.9-3.9v-11.4c0-1.2-0.9-2.1-2.1-2.1 -1.2 0-2.1 0.9-2.1 2.1v11.1c0 2.4 0.7 4.5 2.1 5.9 1.5 1.5 3.6 2.2 5.9 2.2 2.2 0 4.4-0.4 6.3-1 1-0.4 1.8-1.3 1.8-2.5v-15.7C596.6 130.3 595.7 129.4 594.5 129.4zM634.6 121.5c-1.2 0-2.1 0.9-2.1 2.1 0 0 0 4.2 0 6.8 -1.1-0.6-2.6-1-4-1 -2.3 0-4.4 0.7-5.9 2.2 -1.5 1.5-2.2 3.5-2.2 5.9h0v5.1c0 2.4 0.8 4.4 2.2 5.9 1.5 1.5 3.5 2.3 5.9 2.3 2.2 0 4.3-0.4 6.3-1 1-0.4 1.8-1.3 1.8-2.5v-23.5C636.7 122.5 635.7 121.5 634.6 121.5zM632.5 146.3c-1.3 0.4-2.6 0.5-4 0.5 -2.5 0-3.9-1.4-3.9-3.9v-5.8c0-2.5 1.5-3.9 3.9-3.9 1.5 0 2.9 0.5 4 1.5h0V146.3zM608.8 129.4c-2.2 0-4.3 0.4-6.3 1 -1.1 0.4-1.8 1.3-1.8 2.5v15.7c0 1.2 0.9 2.1 2.1 2.1 1.1 0 2.1-0.9 2.1-2.1v-14.8c1.3-0.3 2.6-0.5 3.9-0.5 2.5 0 4 1.5 4 3.9h0v11.4c0 1.2 0.9 2.1 2.1 2.1 1.2 0 2.1-0.9 2.1-2.1v-11.1c0-2.3-0.8-4.4-2.2-5.8C613.2 130.1 611.2 129.4 608.8 129.4zM753.2 146.5c-0.8 0-1 0.3-2.1 0.3 -1 0-1.9-0.9-1.9-2.5v-10.5h3.9c1.2 0 2.1-0.8 2.1-2 0-1.1-0.9-2-2.1-2h-3.9v-6.1c0-1.2-0.9-2.1-2.1-2.1 -1.2 0-2.1 0.9-2.1 2.1h0v20.7c0 3.7 2.7 6.3 6 6.3 0.8 0 1.6-0.1 2.4-0.2 1-0.2 1.8-1 1.8-2C755.2 147.2 754.2 146.5 753.2 146.5zM738.8 129.4c-1.2 0-2.1 0.9-2.1 2.1h0v14.8c-1.2 0.3-2.6 0.5-4 0.5 -2.5 0-3.9-1.4-3.9-3.9v-11.4c0-1.2-0.9-2.1-2.1-2.1 -1.2 0-2.1 0.9-2.1 2.1v11.1c0 2.4 0.7 4.5 2.1 5.9 1.5 1.5 3.6 2.2 5.9 2.2 2.2 0 4.4-0.4 6.3-1 1-0.4 1.8-1.3 1.8-2.5v-15.7C740.9 130.3 740 129.4 738.8 129.4zM681.3 139.1l6.9-6.1c0.4-0.4 0.7-0.9 0.7-1.5 0-1.2-0.9-2.1-2-2.1 -0.5 0-1.1 0.2-1.5 0.6l-7.2 6.7v-13c0-1.2-0.9-2.1-2.1-2.1 -1.2 0-2.1 0.9-2.1 2.1v24.9c0 1.2 0.9 2.1 2.1 2.1 1.1 0 2.1-0.9 2.1-2.1v-7l7.3 8.3c0.4 0.5 1 0.7 1.6 0.7 1.2 0 2-1 2-2.1 0-0.5-0.1-1-0.5-1.4L681.3 139.1zM701.2 129.7c-1-0.2-2-0.3-3-0.3 -3.4 0-6 2.6-6 6h0v13.1c0 1.2 0.9 2.1 2.1 2.1 1.1 0 2.1-0.9 2.1-2.1v-13.5c0-1 0.8-1.9 1.9-1.9 0.6 0 1.4 0.2 2 0.3 0.3 0.1 0.4 0.1 0.7 0.1 1.2 0 2-0.8 2-1.9C702.8 130.7 702.2 129.9 701.2 129.7zM713.8 129.3c-2.9 0-4.8 0.4-7 1.6 -0.7 0.4-1 1.1-1 1.9 0 1 0.9 1.8 2 1.8 0.4 0 0.8-0.2 1.1-0.4 1.4-0.8 2.5-1.1 4.4-1.1 2.1 0 3.4 1.3 3.4 3v1.4h-4.2c-2.5 0-4.4 0.6-5.8 1.8 -1.4 1.1-2.1 2.7-2.1 4.6 0 2 0.7 3.6 2.1 4.8 1.4 1.2 3.3 1.8 5.8 1.8 2.3 0 4.6-0.4 6.5-1 1.1-0.4 1.8-1.3 1.8-2.5h0v-10.9C720.8 132.6 718.3 129.3 713.8 129.3zM716.6 146.3c-1.3 0.3-2.8 0.5-4.2 0.5 -3.5 0-3.7-2-3.7-2.7 0-0.7 0.2-2.6 3.7-2.6h4.2V146.3zM760.8 121.7c-0.2 0-0.3 0.1-0.4 0.3l-1.1 2.2 -1.1-2.2c-0.1-0.1-0.2-0.3-0.4-0.3 -0.3 0-0.5 0.2-0.5 0.5v4c0 0.2 0.2 0.4 0.4 0.4 0.2 0 0.4-0.2 0.4-0.4v-2.5l0.7 1.5c0.1 0.1 0.2 0.3 0.4 0.3 0.2 0 0.3-0.1 0.4-0.3l0.7-1.5v2.5c0 0.2 0.2 0.4 0.4 0.4 0.2 0 0.4-0.2 0.4-0.4v-4C761.3 121.9 761.1 121.7 760.8 121.7zM756.3 121.8h-2.5c-0.2 0-0.4 0.2-0.4 0.4 0 0.2 0.2 0.4 0.4 0.4h0.8v3.6c0 0.2 0.2 0.4 0.4 0.4 0.2 0 0.4-0.2 0.4-0.4v-3.6h0.8c0.2 0 0.4-0.2 0.4-0.4C756.7 121.9 756.5 121.8 756.3 121.8z"
       id="text2"
       style="fill-rule:nonzero;fill:#ebebeb;fill-opacity:1" />
     </g>
    </svg>